<svg width="48" height="48" viewBox="0 0 48 48" fill="none" xmlns="http://www.w3.org/2000/svg">
<path d="M1 10C1 5.02944 5.02944 1 10 1H38C42.9706 1 47 5.02944 47 10V38C47 42.9706 42.9706 47 38 47H10C5.02944 47 1 42.9706 1 38V10Z" stroke="#99D9BD" stroke-width="2"/>
<path d="M35.314 25.7296C35.2405 25.7145 35.1647 25.7141 35.0909 25.7284C35.0172 25.7427 34.947 25.7714 34.8844 25.8128C34.8218 25.8543 34.7679 25.9076 34.7259 25.9699C34.6839 26.0322 34.6545 26.1021 34.6395 26.1758C34.2487 28.1005 33.344 29.8833 32.0217 31.3346C30.6994 32.7859 29.0089 33.8515 27.1298 34.4182C25.2507 34.9848 23.2534 35.0314 21.35 34.5528C19.4466 34.0742 17.7084 33.0885 16.3201 31.7003C14.9317 30.3121 13.9452 28.5734 13.4653 26.6689C12.9854 24.7645 13.0301 22.7655 13.5947 20.8844C14.1592 19.0034 15.2225 17.3105 16.6714 15.9859C18.1204 14.6612 19.901 13.7543 21.8238 13.3614C21.8989 13.3464 21.9703 13.3167 22.0339 13.2741C22.0975 13.2314 22.1521 13.1767 22.1946 13.1129C22.237 13.0492 22.2665 12.9777 22.2814 12.9025C22.2962 12.8274 22.2962 12.75 22.2811 12.6749C22.2661 12.5998 22.2365 12.5284 22.1939 12.4647C22.1513 12.401 22.0966 12.3464 22.0329 12.3039C21.9692 12.2614 21.8977 12.2319 21.8227 12.217C21.7476 12.2022 21.6703 12.2022 21.5952 12.2173C19.4721 12.6525 17.5064 13.6548 15.9065 15.1178C14.3067 16.5809 13.1325 18.4501 12.5084 20.5271C11.8844 22.6041 11.8338 24.8115 12.3621 26.9149C12.8904 29.0184 13.9779 30.9395 15.509 32.4743C17.0402 34.0092 18.958 35.1006 21.059 35.6327C23.1599 36.1648 25.3656 36.1178 27.442 35.4966C29.5183 34.8754 31.388 33.7033 32.8524 32.1045C34.3169 30.5058 35.3216 28.5401 35.7599 26.416C35.7766 26.3416 35.7783 26.2646 35.7648 26.1895C35.7513 26.1144 35.723 26.0428 35.6815 25.9788C35.6399 25.9148 35.586 25.8598 35.5229 25.817C35.4598 25.7742 35.3888 25.7445 35.314 25.7296Z" fill="#99D9BD" stroke="#99D9BD"/>
<path d="M23.9962 12C23.8446 12 23.6992 12.0603 23.592 12.1676C23.4848 12.2748 23.4246 12.4203 23.4246 12.5721V24.0135C23.4246 24.1652 23.4848 24.3107 23.592 24.418C23.6992 24.5253 23.8446 24.5855 23.9962 24.5855H35.4285C35.5801 24.5855 35.7255 24.5253 35.8327 24.418C35.9399 24.3107 36.0002 24.1652 36.0002 24.0135C36.0002 20.8273 34.7355 17.7716 32.4843 15.5187C30.2331 13.2657 27.1798 12 23.9962 12ZM24.5678 13.1727C24.6593 13.1727 24.7564 13.1727 24.8479 13.1727L25.3395 13.2185L25.9111 13.3043L26.3855 13.3959L26.9286 13.5389C27.0829 13.5846 27.2373 13.6247 27.3859 13.6762C27.5345 13.7277 27.7403 13.802 27.9118 13.8707C28.0832 13.9393 28.2033 13.9794 28.3462 14.0423C28.4891 14.1052 28.6892 14.2025 28.8549 14.2883C29.0207 14.3741 29.1293 14.4199 29.2608 14.4942C29.3923 14.5686 29.5923 14.6945 29.7581 14.7974L30.1239 15.0263C30.3011 15.1464 30.4612 15.278 30.6269 15.4038C30.7927 15.5297 30.8327 15.5526 30.9356 15.6384C31.1586 15.8214 31.3701 16.0217 31.5815 16.2104C31.6444 16.2676 31.7016 16.3306 31.7645 16.3935C31.9702 16.5994 32.1703 16.8168 32.3361 17.0399C32.4161 17.1372 32.4904 17.2459 32.5647 17.3431C32.639 17.4404 32.8277 17.6749 32.9477 17.8523C33.0678 18.0296 33.0963 18.0925 33.1706 18.2127C33.245 18.3328 33.3821 18.5445 33.4793 18.7161C33.5765 18.8877 33.6165 18.9793 33.6851 19.1108C33.7537 19.2424 33.8566 19.4541 33.9309 19.6314C34.0052 19.8088 34.0452 19.9175 34.1024 20.0547C34.1595 20.192 34.2396 20.4152 34.2967 20.5982C34.3539 20.7813 34.3882 20.89 34.4339 21.0444C34.4797 21.1989 34.5311 21.4106 34.5768 21.6165C34.6226 21.8224 34.6397 21.9254 34.6683 22.0799C34.6969 22.2343 34.7312 22.4632 34.754 22.6519C34.7769 22.8407 34.7883 22.9723 34.7998 23.1325C34.8112 23.2927 34.7998 23.3213 34.7998 23.4185H24.5678V13.1727Z" fill="#99D9BD" stroke="#99D9BD"/>
</svg>
