<svg width="48" height="48" viewBox="0 0 48 48" fill="none" xmlns="http://www.w3.org/2000/svg">
<path d="M1 10C1 5.02944 5.02944 1 10 1H38C42.9706 1 47 5.02944 47 10V38C47 42.9706 42.9706 47 38 47H10C5.02944 47 1 42.9706 1 38V10Z" stroke="#91ABC6" stroke-width="2"/>
<path d="M24.0679 23.1961V33.1571C24.0679 33.6141 24.0491 34.0781 24.0679 34.5352V34.5539L24.5366 34.0852H20.9272L21.396 34.5539V24.593C21.396 24.136 21.4147 23.6719 21.396 23.2149V23.1961L20.9272 23.6649H24.5366C24.7827 23.6649 25.0171 23.4492 25.0054 23.1961C24.9937 22.943 24.7991 22.7274 24.5366 22.7274H20.9272C20.6741 22.7274 20.4585 22.943 20.4585 23.1961V33.1571C20.4585 33.6164 20.4468 34.0758 20.4585 34.5352V34.5539C20.4585 34.8071 20.6741 35.0227 20.9272 35.0227H24.5366C24.7897 35.0227 25.0054 34.8071 25.0054 34.5539V24.593C25.0054 24.1336 25.0171 23.6742 25.0054 23.2149V23.1961C25.0054 22.95 24.7897 22.7156 24.5366 22.7274C24.2835 22.7391 24.0679 22.9336 24.0679 23.1961ZM16.521 27.4149V34.5563L16.9897 34.0875H13.3804L13.8491 34.5563V27.4149L13.3804 27.8836H16.9897C17.2358 27.8836 17.4702 27.668 17.4585 27.4149C17.4468 27.1617 17.2522 26.9461 16.9897 26.9461H13.3804C13.1272 26.9461 12.9116 27.1617 12.9116 27.4149V34.5563C12.9116 34.8094 13.1272 35.025 13.3804 35.025H16.9897C17.2429 35.025 17.4585 34.8094 17.4585 34.5563V27.4149C17.4585 27.1688 17.2429 26.9344 16.9897 26.9461C16.7343 26.9578 16.521 27.1524 16.521 27.4149ZM34.6194 18.5086H32.0835C31.8304 18.5086 31.6147 18.7242 31.6147 18.9774V32.6344C31.6147 33.2649 31.5937 33.9 31.6147 34.5281V34.5539L32.0835 34.0852H28.4741L28.9429 34.5539V20.8969C28.9429 20.2664 28.9569 19.6336 28.9429 19.0031V18.9774C28.9429 18.7242 28.7272 18.5086 28.4741 18.5086H25.9382C26.0483 18.7758 26.1585 19.043 26.2687 19.3078C26.7585 18.6844 27.246 18.061 27.7358 17.4375C28.5163 16.4438 29.2944 15.45 30.0749 14.4586C30.253 14.2313 30.4312 14.0039 30.6116 13.7766H29.9483C30.4382 14.4 30.9257 15.0235 31.4155 15.6469C32.196 16.6406 32.9741 17.6344 33.7546 18.6258C33.9327 18.8531 34.1108 19.0805 34.2913 19.3078C34.4437 19.5024 34.7976 19.4789 34.9546 19.3078C35.1444 19.1016 35.1163 18.8508 34.9546 18.6446C34.4647 18.0211 33.9772 17.3977 33.4874 16.7742C32.7069 15.7805 31.9288 14.7867 31.1483 13.7953C30.9702 13.568 30.7921 13.3406 30.6116 13.1133C30.4687 12.9305 30.0913 12.9305 29.9483 13.1133C29.4585 13.7367 28.971 14.3602 28.4812 14.9836C27.7007 15.9774 26.9226 16.9711 26.1421 17.9625C25.964 18.1899 25.7858 18.4172 25.6054 18.6446C25.4858 18.7969 25.4272 18.9656 25.5093 19.1555C25.5819 19.3266 25.7507 19.4438 25.9382 19.4438H28.4741L28.0054 18.975V32.6321C28.0054 33.2625 27.9913 33.8953 28.0054 34.5258V34.5516C28.0054 34.8047 28.221 35.0203 28.4741 35.0203H32.0835C32.3366 35.0203 32.5522 34.8047 32.5522 34.5516V20.8946C32.5522 20.2641 32.5733 19.6289 32.5522 19.0008V18.975L32.0835 19.4438H34.6194C34.8655 19.4438 35.0999 19.2281 35.0882 18.975C35.0765 18.7242 34.8819 18.5086 34.6194 18.5086Z" fill="#91ABC6"/>
<path d="M25.0054 23.1961C25.0171 23.4492 24.7827 23.6649 24.5366 23.6649H20.9272L21.396 23.1961V23.2149C21.4147 23.6719 21.396 24.136 21.396 24.593V34.5539L20.9272 34.0852H24.5366L24.0679 34.5539V34.5352C24.0491 34.0781 24.0679 33.6141 24.0679 33.1571V23.1961C24.0679 22.9336 24.2835 22.7391 24.5366 22.7274M25.0054 23.1961C24.9937 22.943 24.7991 22.7274 24.5366 22.7274M25.0054 23.1961V23.2149C25.0171 23.6742 25.0054 24.1336 25.0054 24.593V34.5539C25.0054 34.8071 24.7897 35.0227 24.5366 35.0227H20.9272C20.6741 35.0227 20.4585 34.8071 20.4585 34.5539V34.5352C20.4468 34.0758 20.4585 33.6164 20.4585 33.1571V23.1961C20.4585 22.943 20.6741 22.7274 20.9272 22.7274H24.5366M25.0054 23.1961C25.0054 22.95 24.7897 22.7156 24.5366 22.7274M17.4585 27.4149C17.4702 27.668 17.2358 27.8836 16.9897 27.8836H13.3804L13.8491 27.4149V34.5563L13.3804 34.0875H16.9897L16.521 34.5563V27.4149C16.521 27.1524 16.7343 26.9578 16.9897 26.9461M17.4585 27.4149C17.4468 27.1617 17.2522 26.9461 16.9897 26.9461M17.4585 27.4149V34.5563C17.4585 34.8094 17.2429 35.025 16.9897 35.025H13.3804C13.1272 35.025 12.9116 34.8094 12.9116 34.5563V27.4149C12.9116 27.1617 13.1272 26.9461 13.3804 26.9461H16.9897M17.4585 27.4149C17.4585 27.1688 17.2429 26.9344 16.9897 26.9461M34.6194 18.5086H32.0835C31.8304 18.5086 31.6147 18.7242 31.6147 18.9774V32.6344C31.6147 33.2649 31.5937 33.9 31.6147 34.5281V34.5539L32.0835 34.0852H28.4741L28.9429 34.5539V20.8969C28.9429 20.2664 28.9569 19.6336 28.9429 19.0031V18.9774C28.9429 18.7242 28.7272 18.5086 28.4741 18.5086H25.9382C26.0483 18.7758 26.1585 19.043 26.2687 19.3078C26.7585 18.6844 27.246 18.061 27.7358 17.4375C28.5163 16.4438 29.2944 15.45 30.0749 14.4586C30.253 14.2313 30.4312 14.0039 30.6116 13.7766H29.9483C30.4382 14.4 30.9257 15.0235 31.4155 15.6469C32.196 16.6406 32.9741 17.6344 33.7546 18.6258C33.9327 18.8531 34.1108 19.0805 34.2913 19.3078C34.4437 19.5024 34.7976 19.4789 34.9546 19.3078C35.1444 19.1016 35.1163 18.8508 34.9546 18.6446C34.4647 18.0211 33.9772 17.3977 33.4874 16.7742C32.7069 15.7805 31.9288 14.7867 31.1483 13.7953C30.9702 13.568 30.7921 13.3406 30.6116 13.1133C30.4687 12.9305 30.0913 12.9305 29.9483 13.1133C29.4585 13.7367 28.971 14.3602 28.4812 14.9836C27.7007 15.9774 26.9226 16.9711 26.1421 17.9625C25.964 18.1899 25.7858 18.4172 25.6054 18.6446C25.4858 18.7969 25.4272 18.9656 25.5093 19.1555C25.5819 19.3266 25.7507 19.4438 25.9382 19.4438H28.4741L28.0054 18.975V32.6321C28.0054 33.2625 27.9913 33.8953 28.0054 34.5258V34.5516C28.0054 34.8047 28.221 35.0203 28.4741 35.0203H32.0835C32.3366 35.0203 32.5522 34.8047 32.5522 34.5516V20.8946C32.5522 20.2641 32.5733 19.6289 32.5522 19.0008V18.975L32.0835 19.4438H34.6194C34.8655 19.4438 35.0999 19.2281 35.0882 18.975C35.0765 18.7242 34.8819 18.5086 34.6194 18.5086Z" stroke="#91ABC6"/>
</svg>
