<svg width="48" height="48" viewBox="0 0 48 48" fill="none" xmlns="http://www.w3.org/2000/svg">
<path d="M1 10C1 5.02944 5.02944 1 10 1H38C42.9706 1 47 5.02944 47 10V38C47 42.9706 42.9706 47 38 47H10C5.02944 47 1 42.9706 1 38V10Z" stroke="#D9AFA9" stroke-width="2"/>
<path d="M18.1594 28.7605V27.7283C18.1594 26.0607 18.9872 24.4294 20.4134 23.6492C19.9886 23.2643 19.431 23.0468 18.8495 23.0394H15.5174C15.1562 23.0481 14.8015 23.1345 14.4789 23.2924C14.1564 23.4503 13.8741 23.6757 13.6525 23.9523C13.1158 24.6019 12.8286 25.4121 12.8401 26.2442V27.1506C12.833 27.3035 12.8852 27.4534 12.9863 27.571C14.0862 28.823 15.5702 29.1265 17.1836 29.1265C17.5196 29.1278 17.8554 29.1123 18.1897 29.0802C18.1693 28.9754 18.1592 28.8689 18.1594 28.7622V28.7605ZM17.1836 16.0344C17.7762 16.0341 18.3556 16.2041 18.8485 16.523C19.3414 16.8418 19.7257 17.2952 19.9527 17.8258C20.1797 18.3563 20.2393 18.9402 20.1239 19.5036C20.0085 20.067 19.7233 20.5846 19.3044 20.9908C18.8855 21.3971 18.3517 21.6738 17.7705 21.786C17.1894 21.8982 16.5869 21.8408 16.0394 21.6211C15.4919 21.4013 15.0239 21.0292 14.6946 20.5516C14.3654 20.074 14.1896 19.5126 14.1896 18.9382C14.1896 18.1681 14.5052 17.4295 15.0671 16.8849C15.6289 16.3404 16.3909 16.0344 17.1854 16.0344H17.1836ZM18.7069 17.4597C18.4055 17.1677 18.0215 16.9689 17.6035 16.8884C17.1856 16.8079 16.7524 16.8493 16.3587 17.0075C15.965 17.1656 15.6285 17.4333 15.3918 17.7767C15.1551 18.1202 15.0287 18.5239 15.0287 18.937C15.0287 19.35 15.1551 19.7538 15.3918 20.0972C15.6285 20.4407 15.965 20.7084 16.3587 20.8665C16.7524 21.0246 17.1856 21.0661 17.6035 20.9856C18.0215 20.9051 18.4055 20.7062 18.7069 20.4143C18.9072 20.2203 19.0661 19.9901 19.1745 19.7366C19.2829 19.4831 19.3387 19.2114 19.3387 18.937C19.3387 18.6626 19.2829 18.3909 19.1745 18.1374C19.0661 17.8839 18.9072 17.6536 18.7069 17.4597ZM30.8174 16.0344C31.41 16.034 31.9894 16.204 32.4824 16.5228C32.9753 16.8416 33.3596 17.295 33.5867 17.8255C33.8138 18.3561 33.8734 18.94 33.758 19.5034C33.6427 20.0668 33.3575 20.5844 32.9386 20.9907C32.5198 21.397 31.986 21.6738 31.4048 21.786C30.8236 21.8982 30.2211 21.8408 29.6736 21.6211C29.1261 21.4014 28.658 21.0292 28.3288 20.5516C27.9995 20.0741 27.8237 19.5126 27.8237 18.9382C27.8237 18.1684 28.1391 17.4302 28.7004 16.8857C29.2618 16.3412 30.0232 16.035 30.8174 16.0344ZM32.3424 17.4597C32.041 17.1675 31.6569 16.9685 31.2387 16.8878C30.8206 16.8072 30.3872 16.8486 29.9933 17.0067C29.5994 17.1648 29.2627 17.4326 29.0258 17.7762C28.789 18.1198 28.6626 18.5237 28.6626 18.937C28.6626 19.3502 28.789 19.7542 29.0258 20.0978C29.2627 20.4414 29.5994 20.7092 29.9933 20.8673C30.3872 21.0254 30.8206 21.0668 31.2387 20.9861C31.6569 20.9055 32.041 20.7065 32.3424 20.4143C32.7464 20.0224 32.9734 19.491 32.9734 18.937C32.9734 18.383 32.7464 17.8516 32.3424 17.4597ZM26.7467 23.318C27.0451 22.9818 27.4136 22.7106 27.8279 22.5222C28.2422 22.3339 28.6929 22.2327 29.1504 22.2253H32.4826C32.9672 22.2338 33.4438 22.3468 33.8778 22.556C34.3118 22.7653 34.6922 23.0656 34.9916 23.4352C35.6537 24.2299 36.0101 25.2231 35.9998 26.2446V27.151C36.0056 27.4972 35.8818 27.8338 35.6513 28.0985C34.3763 29.5504 32.6694 29.9389 30.8163 29.9389C30.3483 29.9416 29.8807 29.9113 29.4172 29.8483C27.9821 31.4482 26.069 31.8765 24.0005 31.8765C21.932 31.8765 20.019 31.4482 18.5842 29.848C17.2545 30.0397 15.8977 29.9487 14.608 29.5811C13.7287 29.2981 12.9474 28.7849 12.3504 28.0981C12.1195 27.8336 11.9951 27.4971 12.0002 27.1506V26.2442C11.9907 25.2229 12.347 24.23 13.0084 23.4349C13.308 23.0656 13.6885 22.7655 14.1224 22.5562C14.5564 22.347 15.0328 22.2338 15.5174 22.225H18.8495C19.3071 22.232 19.758 22.3331 20.1723 22.5214C20.5867 22.7098 20.9551 22.9812 21.2533 23.3177C21.5312 23.2462 21.8175 23.2102 22.105 23.2105H25.8979C26.1848 23.2102 26.4705 23.2462 26.7477 23.3177L26.7467 23.318ZM29.8138 29.0785C30.9251 29.2043 32.051 29.1136 33.1256 28.8116C33.8624 28.5754 34.5173 28.146 35.0176 27.571C35.1182 27.4532 35.1697 27.3033 35.162 27.1506V26.2442C35.1733 25.4124 34.8868 24.6025 34.3514 23.9523C34.1294 23.6757 33.8468 23.4502 33.524 23.2924C33.2012 23.1345 32.8462 23.0481 32.4847 23.0394H29.1515C28.5701 23.0468 28.0124 23.2643 27.5876 23.6492C29.0142 24.4301 29.8416 26.0614 29.8416 27.7283V28.7598C29.8416 28.8664 29.832 28.9728 29.8127 29.0778L29.8138 29.0785ZM24.0005 15.8765C24.7216 15.8763 25.4266 16.0833 26.0263 16.4715C26.626 16.8596 27.0935 17.4115 27.3696 18.0571C27.6458 18.7028 27.7182 19.4134 27.5777 20.0989C27.4372 20.7845 27.0901 21.4143 26.5803 21.9087C26.0705 22.403 25.4209 22.7397 24.7137 22.8763C24.0065 23.0128 23.2734 22.943 22.6071 22.6756C21.9408 22.4083 21.3713 21.9554 20.9705 21.3744C20.5697 20.7933 20.3558 20.11 20.3556 19.4111C20.3557 18.474 20.7397 17.5752 21.4232 16.9124C22.1067 16.2496 23.0337 15.877 24.0005 15.8765ZM25.9845 17.488C25.5921 17.1077 25.0922 16.8487 24.548 16.7438C24.0037 16.6389 23.4396 16.6928 22.9269 16.8986C22.4142 17.1045 21.9761 17.453 21.6678 17.9002C21.3595 18.3474 21.1949 18.8732 21.1949 19.4111C21.1949 19.9489 21.3595 20.4747 21.6678 20.9219C21.9761 21.3692 22.4142 21.7177 22.9269 21.9236C23.4396 22.1294 24.0037 22.1833 24.548 22.0783C25.0922 21.9734 25.5921 21.7144 25.9845 21.3341C26.2452 21.0817 26.452 20.7819 26.5931 20.4519C26.7342 20.122 26.8068 19.7683 26.8068 19.4111C26.8068 19.0539 26.7342 18.7002 26.5931 18.3703C26.452 18.0403 26.2452 17.7405 25.9845 17.488ZM18.999 27.7283V28.7598C18.9909 28.9469 19.0553 29.1302 19.1794 29.2738C20.4441 30.7125 22.1492 31.0617 24.0005 31.0617C25.8519 31.0617 27.5587 30.7125 28.8216 29.2738C28.9457 29.1302 29.0101 28.9469 29.0021 28.7598V27.7283C29.0156 26.7681 28.6844 25.8333 28.0652 25.0838C27.8075 24.7625 27.4794 24.5008 27.1045 24.3176C26.7297 24.1344 26.3175 24.0342 25.8979 24.0242H22.105C21.6852 24.0339 21.273 24.134 20.8981 24.3173C20.5233 24.5006 20.1952 24.7624 19.9376 25.0838C19.3172 25.8327 18.9852 26.7678 18.999 27.7283Z" fill="#D9AFA9" stroke="#D9AFA9" stroke-width="0.7"/>
</svg>
