<svg width="48" height="48" viewBox="0 0 48 48" fill="none" xmlns="http://www.w3.org/2000/svg">
<path d="M1 10C1 5.02944 5.02944 1 10 1H38C42.9706 1 47 5.02944 47 10V38C47 42.9706 42.9706 47 38 47H10C5.02944 47 1 42.9706 1 38V10Z" stroke="#91ABC6" stroke-width="2"/>
<path d="M33.7961 26.013C33.7606 26.013 33.7251 26.0101 33.6896 26.0035C33.5504 25.9742 33.432 25.8949 33.359 25.7758L29.1648 19.0987C29.0937 18.9872 29.074 18.854 29.1065 18.7284C29.1391 18.6027 29.223 18.4941 29.3414 18.4289L35.228 15.0723C35.4708 14.9344 35.7836 15.009 35.9277 15.2414C36.0717 15.4738 35.9938 15.7733 35.751 15.9112L30.3045 19.0165L33.95 24.8228L35.0543 24.0831C35.2842 23.9281 35.603 23.981 35.7668 24.2012C35.9286 24.4213 35.8734 24.7264 35.6434 24.8832L34.0921 25.9253C34.0003 25.9819 33.8998 26.013 33.7961 26.013Z" fill="#91ABC6" stroke="#91ABC6" stroke-width="0.5"/>
<path d="M14.2016 26.0128C14.098 26.0128 13.9944 25.9816 13.9085 25.923L12.3572 24.881C12.1273 24.7261 12.072 24.4219 12.2338 24.1989C12.3957 23.9788 12.7134 23.9231 12.9463 24.0809L14.0506 24.8206L17.6961 19.0133L12.2488 15.908C12.0061 15.7701 11.9281 15.4706 12.0722 15.2382C12.2163 15.0058 12.5291 14.9312 12.7719 15.0691L18.6585 18.4257C18.7749 18.4909 18.8578 18.5995 18.8933 18.7252C18.9259 18.8508 18.9062 18.984 18.8351 19.0955L14.6409 25.7727C14.5679 25.8889 14.4485 25.9711 14.3103 26.0003C14.2728 26.0079 14.2371 26.0128 14.2016 26.0128Z" fill="#91ABC6" stroke="#91ABC6" stroke-width="0.5"/>
<path d="M30.6178 28.8404C30.3622 28.8404 30.1076 28.7771 29.8826 28.6618L26.2649 26.7818C26.0172 26.6534 25.9234 26.3558 26.0606 26.1196C26.1948 25.8825 26.5057 25.7927 26.7524 25.924L30.3701 27.8031C30.5852 27.9146 30.8606 27.8635 31.0116 27.6897C31.1685 27.513 31.1754 27.2495 31.0293 27.0662C31.0066 27.0369 30.979 27.0105 30.9514 26.9887L27.8695 24.4938L24.7717 22.6535C24.5625 22.5279 24.302 22.4967 24.0622 22.5666L23.1 22.8472L22.0569 23.9431C21.6523 24.3691 21.072 24.6157 20.4681 24.6157C20.2204 24.6157 19.9757 24.5741 19.7408 24.4948C19.3747 24.3691 19.0865 24.0961 18.9503 23.7475C18.8141 23.397 18.8437 23.0078 19.0362 22.6809L20.5569 20.098C20.62 19.9912 20.7237 19.909 20.845 19.8731C22.3302 19.414 23.8312 19.123 25.4298 18.9832C25.488 18.9785 25.5482 18.9832 25.6045 18.9974L28.9261 19.8269L30.0629 19.4178C30.3284 19.3233 30.6215 19.4518 30.7202 19.7031C30.8189 19.9572 30.6847 20.2378 30.4222 20.3323L29.1333 20.7943C29.0346 20.8302 28.9261 20.8358 28.8254 20.8084L25.4346 19.962C24.0125 20.0904 22.6705 20.3465 21.349 20.7433L19.927 23.1589C19.8668 23.2609 19.8895 23.3545 19.9072 23.4036C19.925 23.4499 19.9734 23.5339 20.0869 23.5727C20.5142 23.7201 21.0036 23.602 21.3017 23.2845L22.4385 22.0895C22.5017 22.0243 22.5796 21.9761 22.6684 21.9516L23.7678 21.6322C24.2879 21.482 24.8514 21.5548 25.3093 21.8259L28.4396 23.686C28.4594 23.6983 28.4801 23.7125 28.4998 23.7276L31.6095 26.2423C31.6874 26.3056 31.7634 26.3803 31.8364 26.47C32.2815 27.0331 32.2608 27.7926 31.791 28.3254C31.4999 28.6514 31.0727 28.8404 30.6178 28.8404Z" fill="#91ABC6" stroke="#91ABC6" stroke-width="0.5"/>
<path d="M31.4387 27.258C31.2818 27.258 31.1258 27.1881 31.0272 27.0578C30.8604 26.8405 30.9107 26.5325 31.1387 26.3757C31.8512 25.8778 32.4847 25.2902 33.0235 24.6318C33.1982 24.4192 33.5189 24.3824 33.741 24.5467C33.963 24.7139 34.0015 25.021 33.8298 25.2335C33.2337 25.9619 32.5311 26.6119 31.7426 27.1636C31.6489 27.2269 31.5452 27.258 31.4387 27.258Z" fill="#91ABC6" stroke="#91ABC6" stroke-width="0.5"/>
<path d="M29.1854 30.4096C28.9358 30.4096 28.6851 30.3491 28.4601 30.2329L25.0268 28.4625C24.7791 28.3341 24.6854 28.0365 24.8196 27.8003C24.9538 27.5632 25.2617 27.4734 25.5114 27.6019L28.9477 29.3723C29.1599 29.4809 29.4155 29.4299 29.5694 29.2637C29.6582 29.1645 29.7006 29.0388 29.6878 28.9084C29.675 28.7781 29.6099 28.659 29.5033 28.5768L29.0306 28.2065C28.8105 28.0374 28.7809 27.7275 28.9575 27.5197C29.1372 27.309 29.4579 27.2807 29.675 27.4498L30.1477 27.8173C30.4713 28.0667 30.6677 28.4247 30.7062 28.8206C30.7437 29.2173 30.6125 29.6019 30.3401 29.9042C30.044 30.2254 29.6246 30.4096 29.1854 30.4096Z" fill="#91ABC6" stroke="#91ABC6" stroke-width="0.5"/>
<path d="M27.8141 31.8483C27.6098 31.8483 27.3996 31.8049 27.2082 31.7198L23.8914 30.2442C23.6358 30.1308 23.5253 29.8398 23.6437 29.5961C23.7621 29.3514 24.0661 29.2456 24.3207 29.359L27.6355 30.8318C27.8022 30.9045 28.0065 30.863 28.1259 30.7401C28.2799 30.5777 28.272 30.3339 28.1111 30.1818L27.8151 29.9041C27.6157 29.7132 27.6128 29.4034 27.8121 29.2125C28.0114 29.0217 28.3322 29.0189 28.5345 29.2097L28.8276 29.4874C29.3812 30.0099 29.4039 30.8516 28.8779 31.4005C28.6095 31.6839 28.2207 31.8483 27.8141 31.8483Z" fill="#91ABC6" stroke="#91ABC6" stroke-width="0.5"/>
<path d="M25.8455 32.9103C25.6738 32.9103 25.5021 32.8839 25.3324 32.8329C24.4788 32.5665 23.5413 32.2235 22.4754 31.7833C22.2148 31.6766 22.0964 31.3894 22.2079 31.1428C22.3194 30.8962 22.6194 30.78 22.88 30.8868C23.9181 31.3147 24.825 31.6463 25.6511 31.9023C25.9294 31.9893 26.2324 31.8806 26.3893 31.6388L26.4495 31.549C26.5225 31.4376 26.5531 31.3025 26.5383 31.1645C26.5057 30.8962 26.708 30.6544 26.9883 30.6232C27.2666 30.5892 27.5212 30.7857 27.5537 31.054C27.5972 31.4092 27.5103 31.7701 27.3159 32.0724L27.2577 32.1593C26.9448 32.6345 26.407 32.9103 25.8455 32.9103Z" fill="#91ABC6" stroke="#91ABC6" stroke-width="0.5"/>
<path d="M20.8844 21.0285C20.844 21.0285 20.8035 21.0238 20.763 21.0143C19.3607 20.6828 18.2693 20.2161 17.7413 19.9648C17.4887 19.8439 17.3851 19.551 17.5114 19.3092C17.6377 19.0673 17.9436 18.9681 18.1962 19.089C18.6867 19.3214 19.7022 19.7569 21.0078 20.064C21.2801 20.1292 21.4499 20.3927 21.3818 20.6563C21.3206 20.8783 21.1134 21.0285 20.8844 21.0285Z" fill="#91ABC6" stroke="#91ABC6" stroke-width="0.5"/>
<path d="M15.8259 27.4053C15.6867 27.4053 15.5476 27.3496 15.4469 27.2428C14.9417 26.7062 14.3989 25.9221 14.0348 25.3609C13.8857 25.1314 13.9588 24.831 14.1986 24.6883C14.4384 24.5457 14.7522 24.6156 14.9012 24.8451C15.1844 25.2778 15.7272 26.0808 16.2078 26.5891C16.3973 26.7893 16.3795 27.0992 16.1703 27.2806C16.0686 27.3619 15.9473 27.4053 15.8259 27.4053Z" fill="#91ABC6" stroke="#91ABC6" stroke-width="0.5"/>
<path d="M16.3648 29.2966C15.8496 29.2966 15.3513 29.0425 15.0937 28.5975C15.0858 28.5852 15.0809 28.573 15.074 28.5616C14.9023 28.2621 14.8697 27.8673 14.996 27.5026C15.1046 27.1908 15.2615 26.8904 15.4638 26.6098C15.6681 26.3198 15.9336 26.0317 16.2474 25.7587C16.5355 25.5093 16.9096 25.3789 17.2905 25.3912C17.6971 25.4035 18.0839 25.5773 18.3513 25.8702C18.6849 26.2405 18.7964 26.7582 18.6414 27.222C18.5556 27.4781 18.2674 27.6207 18 27.5385C17.7326 27.4563 17.5836 27.1805 17.6694 26.9244C17.7178 26.7818 17.6822 26.625 17.5806 26.5107C17.4997 26.4209 17.3862 26.3708 17.2599 26.3652C17.1434 26.3605 17.022 26.4011 16.9312 26.4814C16.6757 26.7015 16.4664 26.9311 16.3046 27.1587C16.1556 27.3666 16.0421 27.582 15.9631 27.8068C15.9276 27.9136 15.9325 28.0269 15.9809 28.112C15.9858 28.1195 15.9888 28.1261 15.9937 28.1337C16.12 28.334 16.3983 28.3585 16.5878 28.2641C16.8375 28.1384 17.1464 28.23 17.2776 28.47C17.4089 28.709 17.3131 29.0047 17.0625 29.1304C16.8395 29.2437 16.5997 29.2966 16.3648 29.2966Z" fill="#91ABC6" stroke="#91ABC6" stroke-width="0.5"/>
<path d="M21.2653 32.9999C21.2199 32.9999 21.1764 32.9971 21.131 32.9952C20.6692 32.9565 20.2695 32.7194 20.0317 32.3471C20.0238 32.3377 20.0189 32.3282 20.0139 32.3179C19.8245 32.0061 19.7791 31.6169 19.8925 31.2437C19.9814 30.9537 20.1146 30.6731 20.2863 30.4048C20.4353 30.1752 20.7481 30.1025 20.9889 30.2451C21.2287 30.3878 21.3047 30.6873 21.1557 30.9178C21.0323 31.1114 20.9356 31.3145 20.8725 31.5177C20.8399 31.6263 20.8468 31.7331 20.8902 31.8124C20.8952 31.82 20.9001 31.8247 20.9031 31.8313C20.9939 31.9768 21.1409 32.0099 21.2218 32.0155C21.3758 32.0325 21.5297 31.9721 21.6284 31.8606C21.8761 31.5895 22.0804 31.3042 22.2471 31.0604C22.3281 30.9423 22.409 30.8214 22.4899 30.7005C22.6014 30.5361 22.5807 30.3207 22.4415 30.1781C22.2718 30.0014 21.9688 29.9995 21.7922 30.1639C21.7616 30.1903 21.7468 30.2055 21.732 30.2215C21.5425 30.4199 21.2189 30.4341 21.0096 30.2527C20.8004 30.0713 20.7846 29.7615 20.9771 29.5612C21.0146 29.5224 21.0531 29.4865 21.0935 29.4497C21.359 29.2003 21.7281 29.0576 22.1139 29.0576C22.5235 29.0576 22.9172 29.222 23.1925 29.5101C23.6445 29.9749 23.7126 30.6806 23.3514 31.222C23.2685 31.3476 23.1846 31.4713 23.1017 31.5923C22.9152 31.8653 22.6853 32.1846 22.3991 32.4992C22.1169 32.8204 21.6995 32.9999 21.2653 32.9999Z" fill="#91ABC6" stroke="#91ABC6" stroke-width="0.5"/>
<path d="M17.5719 30.6173C17.4653 30.6173 17.3597 30.6079 17.2561 30.5862C16.7992 30.4964 16.438 30.2111 16.2683 29.8049C16.2653 29.7973 16.2604 29.7879 16.2584 29.7803C16.0788 29.3354 16.1291 28.8299 16.3877 28.4596C16.8022 27.8673 17.2897 27.308 17.7594 26.7667C17.8709 26.6382 17.9814 26.5125 18.09 26.385C18.3732 26.0562 18.7769 25.855 19.2219 25.8239C19.6561 25.7946 20.0805 25.9259 20.3844 26.1866C20.4575 26.2499 20.5206 26.317 20.5769 26.3897C20.9933 26.9414 20.9301 27.7662 20.418 28.3944C19.966 28.948 19.514 29.5045 18.9732 30.0269C18.5805 30.4048 18.0673 30.6173 17.5719 30.6173ZM17.2058 29.4232C17.2088 29.4279 17.2107 29.4327 17.2137 29.4374C17.2285 29.4761 17.2768 29.5923 17.4614 29.6263C17.6479 29.6622 17.9667 29.6093 18.2499 29.3363C18.7473 28.8554 19.1617 28.3472 19.5989 27.8078C19.8436 27.5083 19.8999 27.1597 19.7509 26.9585C19.7361 26.9396 19.7232 26.9244 19.7025 26.9074C19.6087 26.8253 19.4548 26.7818 19.3009 26.7941C19.1844 26.8016 19.0157 26.8451 18.8814 27.0019C18.7699 27.1304 18.6594 27.2579 18.5459 27.3893C18.091 27.9117 17.6212 28.4511 17.2374 29C17.1476 29.1257 17.1584 29.3023 17.2058 29.4232Z" fill="#91ABC6" stroke="#91ABC6" stroke-width="0.5"/>
<path d="M19.2188 32.1272C19.1182 32.1272 19.0195 32.1178 18.9208 32.1008C18.451 32.0139 18.0741 31.7305 17.8846 31.3195C17.8816 31.3119 17.8767 31.3025 17.8747 31.2949C17.7158 30.9322 17.7306 30.4872 17.9181 30.0762C18.2517 29.3384 18.7974 28.6639 19.5879 28.0111C20.2471 27.4669 21.1817 27.4357 21.7629 27.9364C21.834 27.9969 21.8971 28.0621 21.9494 28.132C22.3767 28.6762 22.3382 29.4763 21.8586 30.0743L21.8438 30.0932C21.4422 30.5911 21.0277 31.1088 20.5224 31.5925C20.1662 31.9354 19.6866 32.1272 19.2188 32.1272ZM18.8152 30.9123C18.8182 30.917 18.8201 30.9218 18.8231 30.9265C18.8764 31.0427 18.9751 31.1154 19.1132 31.1419C19.2928 31.1731 19.5682 31.1296 19.803 30.9048C20.26 30.4674 20.6369 29.9978 21.0356 29.5L21.0504 29.4811C21.2498 29.2345 21.2833 28.9124 21.1313 28.7196C21.1165 28.7008 21.0988 28.6837 21.078 28.6639C20.8787 28.492 20.5244 28.5307 20.2521 28.7537C19.58 29.3054 19.1231 29.8665 18.8527 30.4655C18.7797 30.627 18.7649 30.7989 18.8152 30.9123Z" fill="#91ABC6" stroke="#91ABC6" stroke-width="0.5"/>
</svg>
