<svg width="48" height="48" viewBox="0 0 48 48" fill="none" xmlns="http://www.w3.org/2000/svg">
<path d="M1 10C1 5.02944 5.02944 1 10 1H38C42.9706 1 47 5.02944 47 10V38C47 42.9706 42.9706 47 38 47H10C5.02944 47 1 42.9706 1 38V10Z" stroke="#B7AA80" stroke-width="2"/>
<path d="M16.8001 27.7242H31.2001C31.3062 27.7242 31.408 27.6806 31.483 27.603C31.558 27.5254 31.6001 27.4201 31.6001 27.3104C31.6001 27.2007 31.558 27.0954 31.483 27.0178C31.408 26.9402 31.3062 26.8966 31.2001 26.8966H30.8001V17.3794C30.8001 17.2696 30.758 17.1644 30.683 17.0868C30.608 17.0092 30.5062 16.9656 30.4001 16.9656H27.2001C27.0941 16.9656 26.9923 17.0092 26.9173 17.0868C26.8423 17.1644 26.8001 17.2696 26.8001 17.3794V26.8966H26.0001V20.6897C26.0001 20.58 25.958 20.4747 25.883 20.3971C25.808 20.3195 25.7062 20.2759 25.6001 20.2759H22.4001C22.2941 20.2759 22.1923 20.3195 22.1173 20.3971C22.0423 20.4747 22.0001 20.58 22.0001 20.6897V26.8966H21.2001V19.0345C21.2001 18.9248 21.158 18.8195 21.083 18.7419C21.008 18.6643 20.9062 18.6207 20.8001 18.6207H17.6001C17.4941 18.6207 17.3923 18.6643 17.3173 18.7419C17.2423 18.8195 17.2001 18.9248 17.2001 19.0345V26.8966H16.8001C16.6941 26.8966 16.5923 26.9402 16.5173 27.0178C16.4423 27.0954 16.4001 27.2007 16.4001 27.3104C16.4001 27.4201 16.4423 27.5254 16.5173 27.603C16.5923 27.6806 16.6941 27.7242 16.8001 27.7242ZM27.6001 17.7932H30.0001V26.8966H27.6001V17.7932ZM22.8001 21.1035H25.2001V26.8966H22.8001V21.1035ZM18.0001 19.4483H20.4001V26.8966H18.0001V19.4483Z" fill="#B7AA80" stroke="#B7AA80" stroke-width="0.5"/>
<path d="M19.2 17.7931C19.2525 17.7938 19.3045 17.7831 19.3527 17.7617C19.401 17.7403 19.4443 17.7087 19.48 17.669L21.6 15.4841L23.72 17.669C23.7948 17.7448 23.8953 17.7873 24 17.7873C24.1047 17.7873 24.2053 17.7448 24.28 17.669L28.4 13.4152V14.069C28.4 14.1787 28.4422 14.284 28.5172 14.3616C28.5922 14.4392 28.694 14.4828 28.8 14.4828C28.9061 14.4828 29.0079 14.4392 29.0829 14.3616C29.1579 14.284 29.2 14.1787 29.2 14.069V12.4138C29.2 12.304 29.1579 12.1988 29.0829 12.1212C29.0079 12.0436 28.9061 12 28.8 12H27.2C27.094 12 26.9922 12.0436 26.9172 12.1212C26.8422 12.1988 26.8 12.304 26.8 12.4138C26.8 12.5235 26.8422 12.6288 26.9172 12.7064C26.9922 12.784 27.094 12.8276 27.2 12.8276H27.832L24 16.7917L21.88 14.6069C21.8441 14.5673 21.8008 14.5358 21.7526 14.5142C21.7044 14.4926 21.6525 14.4815 21.6 14.4815C21.5476 14.4815 21.4956 14.4926 21.4475 14.5142C21.3993 14.5358 21.356 14.5673 21.32 14.6069L18.92 17.0897C18.8818 17.1268 18.8513 17.1717 18.8304 17.2215C18.8096 17.2713 18.7988 17.325 18.7988 17.3793C18.7988 17.4336 18.8096 17.4873 18.8304 17.5371C18.8513 17.5869 18.8818 17.6318 18.92 17.669C18.9558 17.7087 18.9991 17.7403 19.0473 17.7617C19.0956 17.7831 19.1476 17.7938 19.2 17.7931Z" fill="#B7AA80" stroke="#B7AA80" stroke-width="0.5"/>
<path d="M33.6 16.9656H32C31.8939 16.9656 31.7922 17.0092 31.7172 17.0868C31.6421 17.1644 31.6 17.2696 31.6 17.3794C31.6 17.4891 31.6421 17.5944 31.7172 17.672C31.7922 17.7496 31.8939 17.7932 32 17.7932H33.2V28.5518H14.8V17.7932H16C16.1061 17.7932 16.2078 17.7496 16.2828 17.672C16.3579 17.5944 16.4 17.4891 16.4 17.3794C16.4 17.2696 16.3579 17.1644 16.2828 17.0868C16.2078 17.0092 16.1061 16.9656 16 16.9656H14.4C14.2939 16.9656 14.1922 17.0092 14.1172 17.0868C14.0421 17.1644 14 17.2696 14 17.3794V32.2759C14 32.3857 14.0421 32.4909 14.1172 32.5685C14.1922 32.6461 14.2939 32.6897 14.4 32.6897H20.288L19.688 35.1725H19.2C19.0939 35.1725 18.9922 35.2161 18.9172 35.2937C18.8421 35.3713 18.8 35.4765 18.8 35.5863C18.8 35.696 18.8421 35.8013 18.9172 35.8789C18.9922 35.9565 19.0939 36.0001 19.2 36.0001H22.4C22.5061 36.0001 22.6078 35.9565 22.6828 35.8789C22.7579 35.8013 22.8 35.696 22.8 35.5863C22.8 35.4765 22.7579 35.3713 22.6828 35.2937C22.6078 35.2161 22.5061 35.1725 22.4 35.1725H20.512L21.112 32.6897H26.888L27.488 35.1725H25.6C25.4939 35.1725 25.3922 35.2161 25.3172 35.2937C25.2421 35.3713 25.2 35.4765 25.2 35.5863C25.2 35.696 25.2421 35.8013 25.3172 35.8789C25.3922 35.9565 25.4939 36.0001 25.6 36.0001H28.8C28.9061 36.0001 29.0078 35.9565 29.0828 35.8789C29.1579 35.8013 29.2 35.696 29.2 35.5863C29.2 35.4765 29.1579 35.3713 29.0828 35.2937C29.0078 35.2161 28.9061 35.1725 28.8 35.1725H28.312L27.712 32.6897H33.6C33.7061 32.6897 33.8078 32.6461 33.8828 32.5685C33.9579 32.4909 34 32.3857 34 32.2759V17.3794C34 17.2696 33.9579 17.1644 33.8828 17.0868C33.8078 17.0092 33.7061 16.9656 33.6 16.9656ZM27.2 31.8621H14.8V29.3794H33.2V31.8621H27.2Z" fill="#B7AA80" stroke="#B7AA80" stroke-width="0.5"/>
<path d="M24.8 30.2069H23.2C23.094 30.2069 22.9922 30.2505 22.9172 30.3281C22.8422 30.4057 22.8 30.511 22.8 30.6207C22.8 30.7304 22.8422 30.8357 22.9172 30.9133C22.9922 30.9909 23.094 31.0345 23.2 31.0345H24.8C24.9061 31.0345 25.0079 30.9909 25.0829 30.9133C25.1579 30.8357 25.2 30.7304 25.2 30.6207C25.2 30.511 25.1579 30.4057 25.0829 30.3281C25.0079 30.2505 24.9061 30.2069 24.8 30.2069Z" fill="#B7AA80" stroke="#B7AA80" stroke-width="0.5"/>
<path d="M24.0001 35.9999C24.221 35.9999 24.4001 35.8147 24.4001 35.5862C24.4001 35.3576 24.221 35.1724 24.0001 35.1724C23.7792 35.1724 23.6001 35.3576 23.6001 35.5862C23.6001 35.8147 23.7792 35.9999 24.0001 35.9999Z" fill="#B7AA80" stroke="#B7AA80" stroke-width="0.5"/>
</svg>
