<svg width="48" height="48" viewBox="0 0 48 48" fill="none" xmlns="http://www.w3.org/2000/svg">
<path d="M1 10C1 5.02944 5.02944 1 10 1H38C42.9706 1 47 5.02944 47 10V38C47 42.9706 42.9706 47 38 47H10C5.02944 47 1 42.9706 1 38V10Z" stroke="#B57B98" stroke-width="2"/>
<path d="M32.1343 32.3648L34.2674 30.3551H32.1343V32.3648ZM28.4778 19.1096C28.7589 19.1096 28.9863 19.3239 28.9863 19.5887C28.9863 19.8535 28.7589 20.0677 28.4778 20.0677H27.733C27.452 20.0677 27.2246 19.8535 27.2246 19.5887C27.2246 19.3239 27.452 19.1096 27.733 19.1096H28.4778ZM29.9505 20.0677C29.6695 20.0677 29.4421 19.8535 29.4421 19.5887C29.4421 19.3239 29.6695 19.1096 29.9505 19.1096H32.4828C32.7639 19.1096 32.9913 19.3239 32.9913 19.5887C32.9913 19.8535 32.7639 20.0677 32.4828 20.0677H29.9505ZM23.2294 18.2217C22.9483 18.2217 22.7209 18.0075 22.7209 17.7427C22.7209 17.4779 22.9484 17.2636 23.2294 17.2636H32.5314C32.8124 17.2636 33.0398 17.4779 33.0398 17.7427C33.0398 18.0075 32.8124 18.2217 32.5314 18.2217H23.2294ZM27.4996 15.8452C27.7806 15.8452 28.008 16.0595 28.008 16.3243C28.008 16.589 27.7806 16.8033 27.4996 16.8033H23.2294C22.9483 16.8033 22.7209 16.589 22.7209 16.3243C22.7209 16.0595 22.9484 15.8452 23.2294 15.8452H27.4996ZM14.5431 21.0033H17.0218V19.991C17.0218 19.5971 17.1936 19.2378 17.4696 18.9777C17.7477 18.7157 18.129 18.5538 18.5471 18.5538H19.7576V15.9153C19.7576 15.3904 19.9861 14.9113 20.3545 14.5642L20.3575 14.5614C20.7269 14.2152 21.2343 14 21.7904 14H33.9672C34.5243 14 35.0328 14.2152 35.4012 14.5623L35.4042 14.5651C35.7716 14.9132 36 15.3913 36 15.9153V29.8758C35.996 30.0237 35.9434 30.1275 35.8421 30.2229L31.9911 33.8512C31.8839 33.9523 31.7687 33.9963 31.6227 34H14.5412C13.8431 34 13.2085 33.7305 12.7478 33.2973C12.285 32.8613 12 32.2635 12 31.6057V23.3982C12 22.7405 12.286 22.1426 12.7458 21.7085C13.2085 21.2725 13.8431 21.0039 14.5412 21.0039L14.5431 21.0033ZM34.9852 29.3969V15.9154C34.9852 15.6515 34.871 15.4111 34.6882 15.2389C34.5035 15.0649 34.2493 14.9573 33.9683 14.9573H21.7915C21.5115 14.9573 21.2562 15.0649 21.0735 15.2371C20.8888 15.4111 20.7746 15.6506 20.7746 15.9154V18.554H24.2135C24.6316 18.554 25.0129 18.7158 25.289 18.9759C25.567 19.2379 25.7388 19.5972 25.7388 19.9911V21.0035H28.2185C28.9166 21.0035 29.5512 21.2729 30.012 21.7061C30.4747 22.1421 30.7597 22.74 30.7597 23.3978V31.6053C30.7597 32.1432 30.5691 32.6419 30.2473 33.0424H31.1153V29.8761C31.1153 29.6113 31.3427 29.3971 31.6237 29.3971L34.9852 29.3969ZM18.0387 21.0033H24.7219V19.991C24.7219 19.859 24.6643 19.7393 24.573 19.6523C24.4806 19.5662 24.3525 19.5119 24.2135 19.5119H18.5461C18.4061 19.5119 18.278 19.5662 18.1866 19.6523C18.0952 19.7393 18.0376 19.859 18.0376 19.991V21.0033H18.0387ZM20.0804 24.1377H22.6803C22.9614 24.1377 23.1888 24.352 23.1888 24.6168V25.3625H29.7439V23.3986C29.7439 23.0028 29.5721 22.6435 29.296 22.3834C29.02 22.1233 28.6376 21.9614 28.2186 21.9614H14.5432C14.1231 21.9614 13.7418 22.1233 13.4657 22.3834C13.1896 22.6435 13.0178 23.0037 13.0178 23.3986V25.3625H19.573V24.6168C19.573 24.352 19.8004 24.1377 20.0814 24.1377H20.0804ZM23.1888 26.3206V27.0663C23.1888 27.3311 22.9614 27.5453 22.6803 27.5453H20.0804C19.7993 27.5453 19.5719 27.3311 19.5719 27.0663V26.3206H13.0168V31.6059C13.0168 32.0016 13.1886 32.3609 13.4647 32.621C13.7407 32.8811 14.1231 33.043 14.5421 33.043H28.2374C28.6495 33.0383 29.0239 32.8774 29.296 32.621C29.572 32.3609 29.7438 32.0007 29.7438 31.6059V26.3206H23.1888ZM22.1719 25.0958H20.5889V26.5872H22.1719V25.0958Z" fill="#B57B98" stroke="#B57B98" stroke-width="0.5"/>
</svg>
